<svg width="200" height="70" viewBox="0 0 200 70" fill="none" xmlns="http://www.w3.org/2000/svg">
<rect width="200" height="70" fill="#34383D"/>
<path d="M56.0703 44.9336H69.5469V48H52.3008V19.5625H56.0703V44.9336ZM94.4102 34.6992C94.4102 37.4857 93.9414 39.9206 93.0039 42.0039C92.0664 44.0742 90.7383 45.6562 89.0195 46.75C87.3008 47.8438 85.2956 48.3906 83.0039 48.3906C80.7643 48.3906 78.7786 47.8438 77.0469 46.75C75.3151 45.6432 73.9674 44.0742 73.0039 42.043C72.0534 39.9987 71.5651 37.6354 71.5391 34.9531V32.9023C71.5391 30.168 72.0143 27.7526 72.9648 25.6562C73.9154 23.5599 75.2565 21.9583 76.9883 20.8516C78.7331 19.7318 80.7253 19.1719 82.9648 19.1719C85.2435 19.1719 87.2487 19.7253 88.9805 20.832C90.7253 21.9258 92.0664 23.5208 93.0039 25.6172C93.9414 27.7005 94.4102 30.1289 94.4102 32.9023V34.6992ZM90.6797 32.8633C90.6797 29.4909 90.0026 26.9062 88.6484 25.1094C87.2943 23.2995 85.3997 22.3945 82.9648 22.3945C80.5951 22.3945 78.7266 23.2995 77.3594 25.1094C76.0052 26.9062 75.3086 29.4062 75.2695 32.6094V34.6992C75.2695 37.9674 75.9531 40.5391 77.3203 42.4141C78.7005 44.276 80.5951 45.207 83.0039 45.207C85.4258 45.207 87.3008 44.3281 88.6289 42.5703C89.957 40.7995 90.6406 38.2669 90.6797 34.9727V32.8633ZM121.031 44.2695C120.068 45.6497 118.72 46.6849 116.988 47.375C115.27 48.0521 113.264 48.3906 110.973 48.3906C108.655 48.3906 106.598 47.8503 104.801 46.7695C103.004 45.6758 101.611 44.1263 100.621 42.1211C99.6445 40.1159 99.1432 37.7917 99.1172 35.1484V32.668C99.1172 28.3841 100.113 25.0638 102.105 22.707C104.111 20.3503 106.923 19.1719 110.543 19.1719C113.512 19.1719 115.901 19.9336 117.711 21.457C119.521 22.9674 120.628 25.1159 121.031 27.9023H117.281C116.578 24.1393 114.339 22.2578 110.562 22.2578C108.049 22.2578 106.142 23.1432 104.84 24.9141C103.551 26.6719 102.9 29.224 102.887 32.5703V34.8945C102.887 38.0846 103.616 40.6237 105.074 42.5117C106.533 44.3867 108.505 45.3242 110.992 45.3242C112.398 45.3242 113.629 45.168 114.684 44.8555C115.738 44.543 116.611 44.0156 117.301 43.2734V36.8867H110.719V33.8398H121.031V44.2695ZM149.176 34.6992C149.176 37.4857 148.707 39.9206 147.77 42.0039C146.832 44.0742 145.504 45.6562 143.785 46.75C142.066 47.8438 140.061 48.3906 137.77 48.3906C135.53 48.3906 133.544 47.8438 131.812 46.75C130.081 45.6432 128.733 44.0742 127.77 42.043C126.819 39.9987 126.331 37.6354 126.305 34.9531V32.9023C126.305 30.168 126.78 27.7526 127.73 25.6562C128.681 23.5599 130.022 21.9583 131.754 20.8516C133.499 19.7318 135.491 19.1719 137.73 19.1719C140.009 19.1719 142.014 19.7253 143.746 20.832C145.491 21.9258 146.832 23.5208 147.77 25.6172C148.707 27.7005 149.176 30.1289 149.176 32.9023V34.6992ZM145.445 32.8633C145.445 29.4909 144.768 26.9062 143.414 25.1094C142.06 23.2995 140.165 22.3945 137.73 22.3945C135.361 22.3945 133.492 23.2995 132.125 25.1094C130.771 26.9062 130.074 29.4062 130.035 32.6094V34.6992C130.035 37.9674 130.719 40.5391 132.086 42.4141C133.466 44.276 135.361 45.207 137.77 45.207C140.191 45.207 142.066 44.3281 143.395 42.5703C144.723 40.7995 145.406 38.2669 145.445 34.9727V32.8633Z" fill="white"/>
</svg>
